<svg version="1.1" id="Layer_1" xmlns="http://www.w3.org/2000/svg" xmlns:xlink="http://www.w3.org/1999/xlink" x="0px" y="0px"
	 width="100%" viewBox="0 0 1018 1094" enable-background="new 0 0 1018 1094" xml:space="preserve">
<path fill="#0D0D0C" opacity="1.000000" stroke="none" 
	d="
M669.000000,1095.000000 
	C446.000000,1095.000000 223.500000,1095.000000 1.000000,1095.000000 
	C1.000000,730.333313 1.000000,365.666656 1.000000,1.000000 
	C340.333344,1.000000 679.666687,1.000000 1019.000000,1.000000 
	C1019.000000,365.666656 1019.000000,730.333313 1019.000000,1095.000000 
	C902.500000,1095.000000 786.000000,1095.000000 669.000000,1095.000000 
M496.500000,908.033630 
	C577.395813,908.033630 658.291626,908.033630 739.894226,908.033630 
	C739.894226,898.406372 739.898071,889.768555 739.893677,881.130798 
	C739.838928,774.484863 739.774780,667.838867 739.731201,561.192932 
	C739.710632,510.895569 732.338806,461.704590 717.763062,413.569275 
	C698.085266,348.584473 668.257751,288.778015 626.419067,235.181137 
	C594.474915,194.259567 557.308777,158.665039 515.555969,127.817467 
	C512.643188,125.665489 511.176178,127.169861 509.156860,128.659866 
	C478.399841,151.354462 450.194031,176.795197 424.458557,205.126144 
	C396.881012,235.484955 373.547363,268.803223 353.676239,304.505768 
	C326.649200,353.065552 307.661438,404.772736 296.118530,459.140137 
	C289.879913,488.523987 285.919495,518.279663 285.861877,548.334412 
	C285.635376,666.477844 285.766083,784.621948 285.776489,902.765808 
	C285.776642,904.350098 285.937561,905.934387 286.051178,908.030396 
	C356.232849,908.030396 425.866425,908.030396 496.500000,908.033630 
z"/>
<path fill="#F9F9F9" opacity="1.000000" stroke="none" 
	d="
M496.000000,908.031982 
	C425.866425,908.030396 356.232849,908.030396 286.051178,908.030396 
	C285.937561,905.934387 285.776642,904.350098 285.776489,902.765808 
	C285.766083,784.621948 285.635376,666.477844 285.861877,548.334412 
	C285.919495,518.279663 289.879913,488.523987 296.118530,459.140137 
	C307.661438,404.772736 326.649200,353.065552 353.676239,304.505768 
	C373.547363,268.803223 396.881012,235.484955 424.458557,205.126144 
	C450.194031,176.795197 478.399841,151.354462 509.156860,128.659866 
	C511.176178,127.169861 512.643188,125.665489 515.555969,127.817467 
	C557.308777,158.665039 594.474915,194.259567 626.419067,235.181137 
	C668.257751,288.778015 698.085266,348.584473 717.763062,413.569275 
	C732.338806,461.704590 739.710632,510.895569 739.731201,561.192932 
	C739.774780,667.838867 739.838928,774.484863 739.893677,881.130798 
	C739.898071,889.768555 739.894226,898.406372 739.894226,908.033630 
	C658.291626,908.033630 577.395813,908.033630 496.000000,908.031982 
M518.990112,415.385071 
	C520.804138,445.650909 522.658020,475.914398 524.422424,506.183136 
	C526.827271,547.437256 529.182678,588.694397 531.525146,629.952087 
	C534.660828,685.180603 537.777588,740.410156 540.874146,795.640869 
	C542.170471,818.761230 543.504700,841.880554 544.554138,865.012512 
	C544.754700,869.432068 546.267761,870.458069 550.519409,870.448608 
	C599.513184,870.339722 648.507385,870.439880 697.501526,870.463684 
	C698.765991,870.464294 700.030640,870.229431 701.651855,870.069153 
	C701.651855,867.903931 701.651306,866.093628 701.651917,864.283264 
	C701.685852,761.129639 701.818054,657.975830 701.649780,554.822571 
	C701.624023,539.021057 700.809021,523.164795 699.306946,507.434265 
	C696.785706,481.029755 690.734009,455.259460 683.583862,429.741486 
	C672.489441,390.147583 656.676758,352.474060 636.373108,316.800507 
	C611.608948,273.289764 581.175110,234.052811 544.465515,199.886780 
	C534.270386,190.398102 523.397278,181.637894 512.669250,172.400574 
	C510.822601,174.047958 509.486969,175.278839 508.108002,176.459061 
	C506.590607,177.757751 505.037506,179.014999 503.492828,180.281601 
	C456.720673,218.633133 419.069275,264.685913 389.328156,317.150726 
	C364.668488,360.651611 346.626953,406.845123 335.421783,455.685150 
	C328.995911,483.693817 324.222321,511.938019 324.136444,540.679321 
	C323.815430,648.164734 323.895630,755.651306 323.833069,863.137451 
	C323.828918,870.274231 323.858734,870.373230 331.204651,870.381897 
	C379.865448,870.439331 428.526337,870.453613 477.187195,870.456848 
	C478.118774,870.456909 479.050354,870.150269 479.971680,869.988525 
	C481.225220,850.764771 482.597076,831.847839 483.659088,812.913574 
	C485.049164,788.130554 486.055511,763.325867 487.479645,738.545044 
	C489.333862,706.279602 491.537537,674.034302 493.407013,641.769775 
	C495.999817,597.021545 498.300507,552.256287 500.953156,507.511780 
	C503.319519,467.595337 506.014069,427.698395 508.513275,387.789673 
	C508.938812,380.994354 508.821228,380.987000 516.523926,380.809692 
	C517.319641,392.003174 518.118164,403.237305 518.990112,415.385071 
z"/>
<path fill="#0E0E0E" opacity="1.000000" stroke="none" 
	d="
M518.953430,414.928284 
	C518.118164,403.237305 517.319641,392.003174 516.523926,380.809692 
	C508.821228,380.987000 508.938812,380.994354 508.513275,387.789673 
	C506.014069,427.698395 503.319519,467.595337 500.953156,507.511780 
	C498.300507,552.256287 495.999817,597.021545 493.407013,641.769775 
	C491.537537,674.034302 489.333862,706.279602 487.479645,738.545044 
	C486.055511,763.325867 485.049164,788.130554 483.659088,812.913574 
	C482.597076,831.847839 481.225220,850.764771 479.971680,869.988525 
	C479.050354,870.150269 478.118774,870.456909 477.187195,870.456848 
	C428.526337,870.453613 379.865448,870.439331 331.204651,870.381897 
	C323.858734,870.373230 323.828918,870.274231 323.833069,863.137451 
	C323.895630,755.651306 323.815430,648.164734 324.136444,540.679321 
	C324.222321,511.938019 328.995911,483.693817 335.421783,455.685150 
	C346.626953,406.845123 364.668488,360.651611 389.328156,317.150726 
	C419.069275,264.685913 456.720673,218.633133 503.492828,180.281601 
	C505.037506,179.014999 506.590607,177.757751 508.108002,176.459061 
	C509.486969,175.278839 510.822601,174.047958 512.669250,172.400574 
	C523.397278,181.637894 534.270386,190.398102 544.465515,199.886780 
	C581.175110,234.052811 611.608948,273.289764 636.373108,316.800507 
	C656.676758,352.474060 672.489441,390.147583 683.583862,429.741486 
	C690.734009,455.259460 696.785706,481.029755 699.306946,507.434265 
	C700.809021,523.164795 701.624023,539.021057 701.649780,554.822571 
	C701.818054,657.975830 701.685852,761.129639 701.651917,864.283264 
	C701.651306,866.093628 701.651855,867.903931 701.651855,870.069153 
	C700.030640,870.229431 698.765991,870.464294 697.501526,870.463684 
	C648.507385,870.439880 599.513184,870.339722 550.519409,870.448608 
	C546.267761,870.458069 544.754700,869.432068 544.554138,865.012512 
	C543.504700,841.880554 542.170471,818.761230 540.874146,795.640869 
	C537.777588,740.410156 534.660828,685.180603 531.525146,629.952087 
	C529.182678,588.694397 526.827271,547.437256 524.422424,506.183136 
	C522.658020,475.914398 520.804138,445.650909 518.953430,414.928284 
M525.910950,373.422028 
	C537.934570,368.121643 544.392456,358.794373 544.537537,345.772522 
	C544.679565,333.021057 535.906555,320.741364 524.691528,316.549469 
	C511.545746,311.635956 498.254730,314.547485 489.391327,324.282440 
	C479.991791,334.606140 478.891998,350.313202 486.740387,362.142334 
	C494.945831,374.509613 510.268707,379.122437 525.910950,373.422028 
z"/>
<path fill="#F9F9F9" opacity="1.000000" stroke="none" 
	d="
M525.548889,373.569153 
	C510.268707,379.122437 494.945831,374.509613 486.740387,362.142334 
	C478.891998,350.313202 479.991791,334.606140 489.391327,324.282440 
	C498.254730,314.547485 511.545746,311.635956 524.691528,316.549469 
	C535.906555,320.741364 544.679565,333.021057 544.537537,345.772522 
	C544.392456,358.794373 537.934570,368.121643 525.548889,373.569153 
z"/>
</svg>